<?xml version="1.0" encoding="UTF-8"?>
<svg width="37px" height="37px" viewBox="0 0 37 37" version="1.1" xmlns="http://www.w3.org/2000/svg" xmlns:xlink="http://www.w3.org/1999/xlink">
    <!-- Generator: Sketch 56.3 (81716) - https://sketch.com -->
    <title>Shape</title>
    <desc>Created with Sketch.</desc>
    <g id="Page-1" stroke="none" stroke-width="1" fill="none" fill-rule="evenodd">
        <path d="M37,11.3385268 C37,10.3514782 36.1967419,9.54823309 35.2096774,9.54823309 C35.0043871,9.54823309 34.8098387,9.59000661 34.6260323,9.65386042 L31.9518871,6.31138207 C32.1225645,6.03746714 32.2258065,5.71700456 32.2258065,5.37088111 C32.2258065,4.38383252 31.4225484,3.58058741 30.4354839,3.58058741 C29.9335968,3.58058741 29.4812419,3.78945501 29.156,4.12244964 L24.451629,1.95142014 C24.4564032,1.89771133 24.4677419,1.84579281 24.4677419,1.7902937 C24.4677419,0.803245109 23.6644839,0 22.6774194,0 C21.9004194,0 21.2439677,0.500685473 20.9969032,1.19352914 L14.2127742,1.19352914 C13.9657097,0.500685473 13.3092581,0 12.5322581,0 C11.5451935,0 10.7419355,0.803245109 10.7419355,1.7902937 C10.7419355,1.86429251 10.7550645,1.9353075 10.7640161,2.00751601 L7.8040161,3.48749214 C7.4817581,3.17717456 7.0461129,2.98382284 6.5645161,2.98382284 C5.5774516,2.98382284 4.7741935,3.78706795 4.7741935,4.77411655 C4.7741935,5.12024 4.8774355,5.44070257 5.0481129,5.71461751 L2.3739677,9.05709585 C2.1901613,8.99324204 1.9956129,8.95146852 1.7903226,8.95146852 C0.8032581,8.95146852 0,9.75471363 0,10.7417622 C0,11.5187497 0.5006935,12.1751907 1.1935484,12.4222513 L1.1935484,16.2230448 C0.5006935,16.4695086 0,17.1259496 0,17.902937 C0,18.8899856 0.8032581,19.6932308 1.7903226,19.6932308 C2.4533387,19.6932308 3.0262419,19.3268173 3.3359677,18.790326 L6.5937581,19.3823164 C6.7316129,20.2333027 7.4656452,20.8867599 8.3548387,20.8867599 C8.3787097,20.8867599 8.4013871,20.8807922 8.4252581,20.8795987 L9.5639032,23.7267625 C9.1915161,24.054983 8.9516129,24.5300076 8.9516129,25.0641119 C8.9516129,26.0511605 9.754871,26.8544056 10.7419355,26.8544056 C11.3422903,26.8544056 11.871629,26.5548298 12.1962742,26.1006919 L17.3177903,27.5639586 C17.3637419,28.2908179 17.8411613,28.8965339 18.5,29.1316592 L18.5,33.5292173 C17.8071452,33.7762778 17.3064516,34.4327188 17.3064516,35.2097063 C17.3064516,36.1967549 18.1097097,37 19.0967742,37 C20.0838387,37 20.8870968,36.1967549 20.8870968,35.2097063 C20.8870968,34.4327188 20.3864032,33.7762778 19.6935484,33.5292173 L19.6935484,29.1316592 C20.3864032,28.8845986 20.8870968,28.2281576 20.8870968,27.4511701 C20.8870968,26.8794697 20.6125806,26.3752036 20.1942419,26.0469831 L20.9067903,23.9087757 L26.2616452,25.6936985 C26.2759677,26.4557668 26.7689032,27.0972888 27.4516129,27.3407687 L27.4516129,33.5286205 C26.7587581,33.775681 26.2580645,34.4321221 26.2580645,35.2091095 C26.2580645,36.1961581 27.0613226,36.9994032 28.0483871,36.9994032 C29.0354516,36.9994032 29.8387097,36.1961581 29.8387097,35.2091095 C29.8387097,34.4321221 29.3380161,33.775681 28.6451613,33.5286205 L28.6451613,27.3413655 C29.3380161,27.0943049 29.8387097,26.4378639 29.8387097,25.6608764 C29.8387097,25.4430574 29.7939516,25.2365768 29.7223387,25.0432251 L34.3013871,21.2275125 C34.5681452,21.3862518 34.8766774,21.4835245 35.2096774,21.4835245 C36.1967419,21.4835245 37,20.6802794 37,19.6932308 C37,18.9162433 36.4993065,18.2598023 35.8064516,18.0127417 L35.8064516,13.0184191 C36.4993065,12.7719553 37,12.1155143 37,11.3385268 Z M30.4354839,4.77411655 C30.7643065,4.77411655 31.0322581,5.04146707 31.0322581,5.37088111 C31.0322581,5.70029516 30.7643065,5.96764568 30.4354839,5.96764568 C30.1066613,5.96764568 29.8387097,5.70029516 29.8387097,5.37088111 C29.8387097,5.04146707 30.1066613,4.77411655 30.4354839,4.77411655 Z M29.586871,6.93738811 C29.8405,7.07583749 30.1269516,7.16117482 30.4354839,7.16117482 C30.6407742,7.16117482 30.8347258,7.1194013 31.0185323,7.05554749 L33.6926774,10.3986226 C33.5225968,10.6725375 33.4193548,10.9924033 33.4193548,11.3385268 C33.4193548,11.4346059 33.4330806,11.5271044 33.448,11.6196029 L29.2204516,13.9255012 L26.1416935,11.3600103 C26.2133065,11.1660618 26.2580645,10.9595813 26.2580645,10.7417622 C26.2580645,10.4994758 26.2085323,10.2679312 26.1208065,10.0572733 L29.586871,6.93738811 Z M22.0806452,16.7094079 C21.8049355,16.7094079 21.547129,16.7768423 21.3137903,16.889034 L18.7852581,14.3605426 L23.249129,12.0456928 C23.5695968,12.3452686 23.9956935,12.5320559 24.4677419,12.5320559 C24.8007419,12.5320559 25.1086774,12.4347833 25.3760323,12.2760439 L28.0931452,14.5401687 L23.2694194,17.1713037 C22.9525323,16.8872438 22.5389677,16.7094079 22.0806452,16.7094079 Z M22.6774194,18.4997016 C22.6774194,18.8291157 22.4094677,19.0964662 22.0806452,19.0964662 C21.7518226,19.0964662 21.483871,18.8291157 21.483871,18.4997016 C21.483871,18.1702876 21.7518226,17.902937 22.0806452,17.902937 C22.4094677,17.902937 22.6774194,18.1702876 22.6774194,18.4997016 Z M13.6547903,11.9275334 L14.6567742,15.1560297 L9.5734516,17.7919388 C9.3604032,17.5932162 9.0996129,17.4487992 8.8095806,17.3718166 L7.9824516,11.0294028 L12.0715484,10.8247125 C12.3311452,11.4537024 12.9398548,11.8988887 13.6547903,11.9275334 Z M13.1290323,10.1449977 C13.1290323,9.81558362 13.3969839,9.54823309 13.7258065,9.54823309 C14.054629,9.54823309 14.3225806,9.81558362 14.3225806,10.1449977 C14.3225806,10.4744117 14.054629,10.7417622 13.7258065,10.7417622 C13.3969839,10.7417622 13.1290323,10.4744117 13.1290323,10.1449977 Z M15.0154355,16.3149465 L16.5288548,21.1923033 L10.1415806,19.0630474 C10.1403871,18.9914356 10.1296452,18.9222109 10.1200968,18.8529862 L15.0154355,16.3149465 Z M15.0112581,12.2748504 L16.7884516,14.0514185 L15.7327581,14.5986516 L15.0112581,12.2748504 Z M15.3370968,10.9118401 C15.4486935,10.6785052 15.516129,10.4207029 15.516129,10.1449977 C15.516129,9.89077596 15.4612258,9.64968307 15.3657419,9.43067047 L18.1992258,6.78580991 L22.7669355,10.2112385 C22.7138226,10.3807197 22.6774194,10.5561684 22.6774194,10.7417622 C22.6774194,10.8253093 22.6911452,10.904679 22.7018871,10.9852422 L17.8996452,13.474944 L15.3370968,10.9118401 Z M23.8709677,10.7417622 C23.8709677,10.4123482 24.1389194,10.1449977 24.4677419,10.1449977 C24.7965645,10.1449977 25.0645161,10.4123482 25.0645161,10.7417622 C25.0645161,11.0711763 24.7965645,11.3385268 24.4677419,11.3385268 C24.1389194,11.3385268 23.8709677,11.0711763 23.8709677,10.7417622 Z M29.0796129,15.3619135 L33.3555,18.9251948 L24.0905806,18.0831599 L29.0796129,15.3619135 Z M22.6774194,1.19352914 C23.0062419,1.19352914 23.2741935,1.46087966 23.2741935,1.7902937 C23.2741935,2.11970775 23.0062419,2.38705827 22.6774194,2.38705827 C22.3485968,2.38705827 22.0806452,2.11970775 22.0806452,1.7902937 C22.0806452,1.46087966 22.3485968,1.19352914 22.6774194,1.19352914 Z M21.8574516,3.37231658 C22.1039194,3.50062096 22.3802258,3.58058741 22.6774194,3.58058741 C23.1793065,3.58058741 23.6316613,3.37171981 23.9575,3.03812842 L28.6612742,5.20915792 C28.6565,5.26346349 28.6451613,5.31538201 28.6451613,5.37088111 C28.6451613,5.61376429 28.6946935,5.84471218 28.7824194,6.05596684 L25.3163548,9.17525524 C25.0627258,9.03680586 24.7762742,8.95146852 24.4677419,8.95146852 C24.1013226,8.95146852 23.7605645,9.0630635 23.4765,9.25283463 L19.0854355,5.95929098 L21.8574516,3.37231658 Z M20.9969032,2.38705827 C21.0112258,2.42584797 21.021371,2.46642796 21.0374839,2.50402413 L18.1150806,5.23123821 L14.3225806,2.38705827 L20.9969032,2.38705827 Z M12.5322581,1.19352914 C12.8610806,1.19352914 13.1290323,1.46087966 13.1290323,1.7902937 C13.1290323,2.11970775 12.8610806,2.38705827 12.5322581,2.38705827 C12.2034355,2.38705827 11.9354839,2.11970775 11.9354839,1.7902937 C11.9354839,1.46087966 12.2034355,1.19352914 12.5322581,1.19352914 Z M8.3548387,4.77411655 C8.3548387,4.70011774 8.3417097,4.62910276 8.3327581,4.55749101 L11.2927581,3.07751488 C11.6150161,3.38723569 12.0506613,3.58058741 12.5322581,3.58058741 C12.8986774,3.58058741 13.2394355,3.46899244 13.5235,3.2792213 L17.228871,6.0583539 L14.5457742,8.56237803 C14.2993065,8.43407364 14.023,8.35470396 13.7258065,8.35470396 C12.9177742,8.35470396 12.2410323,8.89596942 12.0190323,9.6323769 L7.8272903,9.84184126 L7.3737419,6.36210706 C7.9532097,6.06551507 8.3548387,5.4687505 8.3548387,4.77411655 Z M6.5645161,4.17735198 C6.8933387,4.17735198 7.1612903,4.4447025 7.1612903,4.77411655 C7.1612903,5.10353059 6.8933387,5.37088111 6.5645161,5.37088111 C6.2356935,5.37088111 5.9677419,5.10353059 5.9677419,4.77411655 C5.9677419,4.4447025 6.2356935,4.17735198 6.5645161,4.17735198 Z M5.980871,6.45878292 C6.0500968,6.48265351 6.118129,6.50831438 6.1903387,6.52383026 L6.6307581,9.90211448 L3.4445806,10.0614506 C3.4069839,9.97014564 3.3586452,9.88480831 3.3067258,9.80126127 L5.980871,6.45878292 Z M1.7903226,10.1449977 C2.1191452,10.1449977 2.3870968,10.4123482 2.3870968,10.7417622 C2.3870968,11.0711763 2.1191452,11.3385268 1.7903226,11.3385268 C1.4615,11.3385268 1.1935484,11.0711763 1.1935484,10.7417622 C1.1935484,10.4123482 1.4615,10.1449977 1.7903226,10.1449977 Z M1.7903226,18.4997016 C1.4615,18.4997016 1.1935484,18.2323511 1.1935484,17.902937 C1.1935484,17.573523 1.4615,17.3061725 1.7903226,17.3061725 C2.1191452,17.3061725 2.3870968,17.573523 2.3870968,17.902937 C2.3870968,18.2323511 2.1191452,18.4997016 1.7903226,18.4997016 Z M6.8091935,18.2090773 L3.552,17.6170868 C3.446371,16.9672102 2.9928226,16.4384768 2.3870968,16.222448 L2.3870968,12.4216545 C2.9200161,12.2312866 3.3329839,11.7986323 3.4970968,11.2537862 L6.7865161,11.0890792 L7.6184194,17.4684924 C7.275871,17.624248 6.9959839,17.8850341 6.8091935,18.2090773 Z M8.3548387,19.6932308 C8.0260161,19.6932308 7.7580645,19.4258802 7.7580645,19.0964662 C7.7580645,18.7670521 8.0260161,18.4997016 8.3548387,18.4997016 C8.6836613,18.4997016 8.9516129,18.7670521 8.9516129,19.0964662 C8.9516129,19.4258802 8.6836613,19.6932308 8.3548387,19.6932308 Z M10.7419355,25.6608764 C10.4131129,25.6608764 10.1451613,25.3935259 10.1451613,25.0641119 C10.1451613,24.7346978 10.4131129,24.4673473 10.7419355,24.4673473 C11.0707581,24.4673473 11.3387097,24.7346978 11.3387097,25.0641119 C11.3387097,25.3935259 11.0707581,25.6608764 10.7419355,25.6608764 Z M17.6430323,26.4145901 L12.5215161,24.9513234 C12.4612419,24.0173868 11.6908065,23.2738182 10.7419355,23.2738182 C10.7180645,23.2738182 10.6953871,23.2797858 10.6715161,23.2809793 L9.532871,20.4338156 C9.6158226,20.3604135 9.6910161,20.2804471 9.7596452,20.1933195 L16.9650968,22.5952969 L18.0291452,26.0231125 C17.8817419,26.1341107 17.7504516,26.2648022 17.6430323,26.4145901 Z M19.0967742,35.8058741 C18.7679516,35.8058741 18.5,35.5385236 18.5,35.2091095 C18.5,34.8796955 18.7679516,34.612345 19.0967742,34.612345 C19.4255968,34.612345 19.6935484,34.8796955 19.6935484,35.2091095 C19.6935484,35.5385236 19.4255968,35.8058741 19.0967742,35.8058741 Z M19.0967742,28.0479347 C18.7679516,28.0479347 18.5,27.7805842 18.5,27.4511701 C18.5,27.1217561 18.7679516,26.8544056 19.0967742,26.8544056 C19.4255968,26.8544056 19.6935484,27.1217561 19.6935484,27.4511701 C19.6935484,27.7805842 19.4255968,28.0479347 19.0967742,28.0479347 Z M19.1170645,25.5033306 L18.3585645,23.0601764 L19.7741129,23.5322172 L19.1170645,25.5033306 Z M20.151871,22.3995581 L17.9235161,21.6565862 L16.0926129,15.7569717 L17.6740645,14.9370171 L20.4699516,17.7328591 C20.3577581,17.9661941 20.2903226,18.2239964 20.2903226,18.4997016 C20.2903226,19.0714021 20.5648387,19.5762649 20.9837742,19.9038886 L20.151871,22.3995581 Z M28.0483871,35.8058741 C27.7195645,35.8058741 27.4516129,35.5385236 27.4516129,35.2091095 C27.4516129,34.8796955 27.7195645,34.612345 28.0483871,34.612345 C28.3772097,34.612345 28.6451613,34.8796955 28.6451613,35.2091095 C28.6451613,35.5385236 28.3772097,35.8058741 28.0483871,35.8058741 Z M28.0483871,26.257641 C27.7195645,26.257641 27.4516129,25.9902905 27.4516129,25.6608764 C27.4516129,25.3314624 27.7195645,25.0641119 28.0483871,25.0641119 C28.3772097,25.0641119 28.6451613,25.3314624 28.6451613,25.6608764 C28.6451613,25.9902905 28.3772097,26.257641 28.0483871,26.257641 Z M28.9566774,24.125998 C28.6893226,23.9678554 28.3813871,23.8705827 28.0483871,23.8705827 C27.4766774,23.8705827 26.9718065,24.1450944 26.6441774,24.5640232 L21.2839516,22.77731 L22.1140645,20.2864147 C22.8194516,20.2732859 23.4227903,19.8507766 23.7020806,19.2462541 L33.4808226,20.1348365 C33.4963387,20.194513 33.5142419,20.2529959 33.5357258,20.3102853 L28.9566774,24.125998 Z M30.2069194,14.7466492 L34.0209032,12.666328 C34.1921774,12.8202932 34.3920968,12.9396461 34.6135,13.0184191 L34.6135,18.0127417 C34.5036935,18.0521282 34.3998548,18.1004661 34.3013871,18.158949 L30.2069194,14.7466492 Z M35.2096774,20.2899953 C34.8808548,20.2899953 34.6129032,20.0226448 34.6129032,19.6932308 C34.6129032,19.3638167 34.8808548,19.0964662 35.2096774,19.0964662 C35.5385,19.0964662 35.8064516,19.3638167 35.8064516,19.6932308 C35.8064516,20.0226448 35.5385,20.2899953 35.2096774,20.2899953 Z M35.2096774,11.9352914 C34.8808548,11.9352914 34.6129032,11.6679408 34.6129032,11.3385268 C34.6129032,11.0091128 34.8808548,10.7417622 35.2096774,10.7417622 C35.5385,10.7417622 35.8064516,11.0091128 35.8064516,11.3385268 C35.8064516,11.6679408 35.5385,11.9352914 35.2096774,11.9352914 Z" id="Shape" fill="#000000" fill-rule="nonzero"></path>
    </g>
</svg>